<svg id="visual" viewBox="0 0 900 675" width="900" height="675" xmlns="http://www.w3.org/2000/svg" xmlns:xlink="http://www.w3.org/1999/xlink" version="1.1"><rect x="0" y="0" width="900" height="675" fill="#205375"></rect><defs><linearGradient id="grad1_0" x1="25%" y1="0%" x2="100%" y2="100%"><stop offset="23.333333333333336%" stop-color="#205375" stop-opacity="1"></stop><stop offset="76.66666666666666%" stop-color="#205375" stop-opacity="1"></stop></linearGradient></defs><defs><linearGradient id="grad2_0" x1="0%" y1="0%" x2="75%" y2="100%"><stop offset="23.333333333333336%" stop-color="#205375" stop-opacity="1"></stop><stop offset="76.66666666666666%" stop-color="#205375" stop-opacity="1"></stop></linearGradient></defs><g transform="translate(900, 0)"><path d="M0 506.3C-63.5 495.7 -127.1 485.2 -192.1 463.8C-257.1 442.3 -323.6 410 -358 358C-392.3 306 -394.5 234.4 -413.9 171.4C-433.3 108.5 -469.8 54.3 -506.2 0L0 0Z" fill="#F66B0E"></path></g><g transform="translate(0, 675)"><path d="M0 -506.2C47 -456.1 94 -405.9 161.5 -389.9C229 -373.8 316.9 -391.9 358 -358C399.1 -324.1 393.3 -238.2 410.2 -169.9C427.1 -101.6 466.7 -50.8 506.3 0L0 0Z" fill="#F66B0E"></path></g></svg>